<svg xmlns="http://www.w3.org/2000/svg" width="1400" height="950" viewBox="0 0 1400 950">
  <defs>
    <linearGradient id="bg" x1="0" y1="0" x2="1" y2="1">
      <stop offset="0" stop-color="#080a0c"/>
      <stop offset="0.48" stop-color="#12161b"/>
      <stop offset="1" stop-color="#07090b"/>
    </linearGradient>
    <filter id="shadow" x="-30%" y="-30%" width="160%" height="160%">
      <feDropShadow dx="0" dy="28" stdDeviation="26" flood-color="#000" flood-opacity="0.45"/>
    </filter>
  </defs>
  <rect width="1400" height="950" rx="44" fill="url(#bg)"/>
  <circle cx="310" cy="230" r="240" fill="#3ddc97" opacity="0.12"/>
  <circle cx="1110" cy="740" r="260" fill="#3ddc97" opacity="0.1"/>
  <g opacity="0.12" stroke="#fff">
    <path d="M140 220H1250M140 420H1250M140 620H1250M140 820H1250"/>
    <path d="M260 120V850M500 120V850M740 120V850M980 120V850M1220 120V850"/>
  </g>
  <rect x="124" y="132" width="456" height="596" rx="38" fill="#15191f" stroke="#ffffff" stroke-opacity="0.12" filter="url(#shadow)"/>
  <text x="174" y="214" fill="#f2f5f7" font-size="42" font-family="Inter, Arial, sans-serif" font-weight="850">Notice</text>
  <text x="174" y="262" fill="#aab4bf" font-size="24" font-family="Inter, Arial, sans-serif" font-weight="650">Open source status widget</text>
  <g transform="translate(174 332)">
    <rect width="330" height="112" rx="28" fill="#0d1215" stroke="#3ddc97" stroke-opacity="0.28"/>
    <circle cx="62" cy="56" r="18" fill="#ff3b30" opacity="0.36"/>
    <circle cx="116" cy="56" r="18" fill="#ffcc00" opacity="0.9"/>
    <circle cx="170" cy="56" r="18" fill="#34c759" opacity="0.42"/>
    <text x="220" y="65" fill="#f2f5f7" font-size="26" font-family="Inter, Arial, sans-serif" font-weight="800">Waiting</text>
  </g>
  <g transform="translate(174 504)" font-family="Inter, Arial, sans-serif">
    <text x="0" y="0" fill="#b8f4d8" font-size="24" font-weight="800">Customizable</text>
    <rect x="0" y="38" width="320" height="12" rx="6" fill="#3ddc97" opacity="0.76"/>
    <rect x="0" y="90" width="260" height="12" rx="6" fill="#dfe6ee" opacity="0.24"/>
    <rect x="0" y="142" width="300" height="12" rx="6" fill="#dfe6ee" opacity="0.24"/>
  </g>
  <rect x="710" y="168" width="520" height="232" rx="34" fill="#101419" stroke="#ffffff" stroke-opacity="0.12" filter="url(#shadow)"/>
  <text x="770" y="246" fill="#f2f5f7" font-size="34" font-family="Inter, Arial, sans-serif" font-weight="850">Codex Hooks</text>
  <text x="770" y="300" fill="#aab4bf" font-size="25" font-family="Inter, Arial, sans-serif" font-weight="650">UserPromptSubmit · PermissionRequest · Stop</text>
  <path d="M618 444C694 398 692 312 710 290" fill="none" stroke="#3ddc97" stroke-width="6" stroke-linecap="round" stroke-dasharray="18 18"/>
  <rect x="710" y="508" width="520" height="246" rx="34" fill="#101419" stroke="#3ddc97" stroke-opacity="0.22" filter="url(#shadow)"/>
  <text x="770" y="586" fill="#f2f5f7" font-size="34" font-family="Inter, Arial, sans-serif" font-weight="850">Your workflow, your rules</text>
  <text x="770" y="640" fill="#aab4bf" font-size="25" font-family="Inter, Arial, sans-serif" font-weight="650">quiet notifications · local data · Feishu alerts</text>
  <g transform="translate(770 684)">
    <rect width="122" height="42" rx="21" fill="#3ddc97" opacity="0.16"/>
    <text x="26" y="29" fill="#b8f4d8" font-size="22" font-family="Inter, Arial, sans-serif" font-weight="850">MIT</text>
    <rect x="144" width="170" height="42" rx="21" fill="#ffffff" opacity="0.08"/>
    <text x="172" y="29" fill="#dfe6ee" font-size="22" font-family="Inter, Arial, sans-serif" font-weight="750">Tauri 2</text>
  </g>
</svg>
